<?xml version="1.0" encoding="UTF-8"?>
<svg width="150" id="NH-Icon" data-name="NH-Icon" xmlns="http://www.w3.org/2000/svg" viewBox="0 0 24 24">
  <circle id="Icon-Circle" fill="#010101" cx="12" cy="12" r="12"/>
  <path id="NH-Logo" fill="#fff" d="M10.34,13.87v-.38s-.1.03-.13.02c-.25.02-.59-.17-.59-.53,0-.21,0-.43,0-.64,0-2.62,0-7.65,0-7.65,0,0,.17-.08.42-.04.71.12.92.63.96,1.01.06.51.04.96.04,1.48,0,2.38,0,4.76,0,7.14,0,1.44,0,2.88,0,4.31,0,.26.05.77-.13,1.14-.21.46-.59.63-.59.63v.59l3.35-1.84v-.34s-.21.04-.42-.08c-.31-.19-.34-.38-.34-.84,0-1.13,0-3.22,0-3.22h1.43s0,3.11,0,4.49c0,.07.01.18.03.24.2.75.82.84,1.01.84.02,0,.05,0,.07-.01.14-.08,1.09-.61,1.48-.82v-.34c-.25,0-.42-.14-.52-.28-.14-.21-.18-.44-.18-.69,0-.72,0-1.44,0-2.17,0-.39,0-1.26,0-1.26l.71-.37v-.42s-.7,0-.7,0c0,0,0-2.37,0-3.51,0-.29,0-.59.09-.87.07-.25.17-.43.36-.62.13-.13.25-.17.25-.17v-.59l-3.27,1.76v.46s.67-.08.67.62c0,.94,0,2.91,0,2.91,0,0-1.25.19-1.4-.97-.01-.09,0-4.98-.01-7.47,0-.14,0-.67,0-.79,0-1.03-1.1-1.75-2.02-1.33-.41.19-1.28.7-1.28.7.02.02-.08-.29-.15-.4-.21-.38-.75-.59-.96-.5l-1.51.8v.38s.38-.08.59.42c.11.26.13.63.13.63v8.04s.03.64-.17,1.17c-.17.46-.54.63-.54.63v.54"/>
</svg>
